<svg width="525" height="525" xmlns="http://www.w3.org/2000/svg" xmlns:xlink="http://www.w3.org/1999/xlink" xml:space="preserve" overflow="hidden"><defs><clipPath id="clip0"><rect x="1870" y="940" width="525" height="525"/></clipPath><linearGradient x1="2129.19" y1="1245.85" x2="2305.89" y2="1422.56" gradientUnits="userSpaceOnUse" spreadMethod="reflect" id="stroke1"><stop offset="0" stop-color="#FFFFFF"/><stop offset="0.14" stop-color="#FFFFFF"/><stop offset="0.23" stop-color="#9DC3E6"/><stop offset="1" stop-color="#9DC3E6"/></linearGradient><linearGradient x1="2178.77" y1="1178.06" x2="1997" y2="1006.57" gradientUnits="userSpaceOnUse" spreadMethod="reflect" id="stroke2"><stop offset="0" stop-color="#FFFFFF"/><stop offset="0.14" stop-color="#FFFFFF"/><stop offset="0.23" stop-color="#A9D18E"/><stop offset="1" stop-color="#A9D18E"/></linearGradient></defs><g clip-path="url(#clip0)" transform="translate(-1870 -940)"><path d="M1872.5 1029.17C1872.5 981.303 1911.3 942.5 1959.17 942.5L2305.83 942.5C2353.7 942.5 2392.5 981.303 2392.5 1029.17L2392.5 1375.83C2392.5 1423.7 2353.7 1462.5 2305.83 1462.5L1959.17 1462.5C1911.3 1462.5 1872.5 1423.7 1872.5 1375.83Z" stroke="#FFFFFF" stroke-width="4.58333" stroke-miterlimit="8" fill="#FFFFFF" fill-rule="evenodd"/><path d="M2208.97 1175.79 2292.46 1259.28C2338.57 1305.39 2342.41 1376.31 2301.03 1417.69 2259.65 1459.08 2188.72 1455.24 2142.61 1409.13L2059.12 1325.64Z" stroke="url(#stroke1)" stroke-width="13.75" stroke-miterlimit="8" fill="none" fill-rule="evenodd"/><path d="M2101.05 1250.42 2015.17 1169.39C1967.74 1124.64 1961.84 1053.86 2002 1011.29 2042.16 968.724 2113.17 970.494 2160.6 1015.24L2246.49 1096.27Z" stroke="url(#stroke2)" stroke-width="13.75" stroke-miterlimit="8" fill="none" fill-rule="evenodd"/><text font-family="Yu Gothic,Yu Gothic_MSFontService,sans-serif" font-weight="700" font-size="83" transform="matrix(0.707107 0.707107 -0.707107 0.707107 2060.36 1167)">HTML</text></g></svg>